<?xml version="1.0" encoding="UTF-8" standalone="no"?>
<!-- Created with Inkscape (http://www.inkscape.org/) -->

<svg
   xmlns:dc="http://purl.org/dc/elements/1.1/"
   xmlns:cc="http://creativecommons.org/ns#"
   xmlns:rdf="http://www.w3.org/1999/02/22-rdf-syntax-ns#"
   xmlns:svg="http://www.w3.org/2000/svg"
   xmlns="http://www.w3.org/2000/svg"
   xmlns:sodipodi="http://sodipodi.sourceforge.net/DTD/sodipodi-0.dtd"
   xmlns:inkscape="http://www.inkscape.org/namespaces/inkscape"
   width="12"
   height="12"
   viewBox="0 0 12 12"
   id="svg5154"
   version="1.1"
   inkscape:version="0.91 r13725"
   sodipodi:docname="cliente.svg">
  <defs
     id="defs5156" />
  <sodipodi:namedview
     id="base"
     pagecolor="#ffffff"
     bordercolor="#666666"
     borderopacity="1.0"
     inkscape:pageopacity="0.0"
     inkscape:pageshadow="2"
     inkscape:zoom="68.833333"
     inkscape:cx="6"
     inkscape:cy="6"
     inkscape:document-units="px"
     inkscape:current-layer="layer1"
     showgrid="true"
     units="px"
     inkscape:object-nodes="true"
     showguides="true"
     inkscape:guide-bbox="true"
     inkscape:snap-nodes="false"
     inkscape:snap-bbox="true"
     inkscape:bbox-nodes="true"
     inkscape:window-width="1920"
     inkscape:window-height="1016"
     inkscape:window-x="0"
     inkscape:window-y="27"
     inkscape:window-maximized="1">
    <inkscape:grid
       type="xygrid"
       id="grid5718" />
    <sodipodi:guide
       position="0,0"
       orientation="0,1"
       id="guide5720" />
    <sodipodi:guide
       position="0,0"
       orientation="1,0"
       id="guide5722" />
  </sodipodi:namedview>
  <metadata
     id="metadata5159">
    <rdf:RDF>
      <cc:Work
         rdf:about="">
        <dc:format>image/svg+xml</dc:format>
        <dc:type
           rdf:resource="http://purl.org/dc/dcmitype/StillImage" />
        <dc:title></dc:title>
      </cc:Work>
    </rdf:RDF>
  </metadata>
  <g
     inkscape:label="Capa 1"
     inkscape:groupmode="layer"
     id="layer1"
     transform="translate(0,-1040.3622)">
    <g
       transform="matrix(0.4,0,0,0.4,-348.8,874.61733)"
       id="g4548-4-8">
      <g
         id="g4677-9-1"
         transform="translate(-86.86609,-139.92884)">
        <rect
           ry="0"
           rx="0"
           y="565.20624"
           x="964.11072"
           height="16.270834"
           width="11.374283"
           id="rect4675-1-6"
           style="opacity:1;fill:#fcfcf9;fill-opacity:1;stroke:none;stroke-width:2;stroke-linecap:square;stroke-linejoin:round;stroke-miterlimit:4;stroke-dasharray:none;stroke-opacity:1" />
        <path
           style="fill:#5f5448;fill-opacity:1"
           id="path6-7-9"
           d="m 974.86609,562.30102 -10,-0.01 c -1.1,0 -2,0.9 -2,2 l 0,18 c 0,1.1 0.9,2 2,2 l 10,0 c 1.1,0 2,-0.9 2,-2 l 0,-18 c 0,-1.1 -0.9,-1.99 -2,-1.99 z m 0,17.99 -10,0 0,-14 10,0 0,14 z"
           inkscape:connector-curvature="0" />
      </g>
      <path
         inkscape:connector-curvature="0"
         style="opacity:1;fill:#5f5448;fill-opacity:1;stroke:none;stroke-width:2;stroke-linecap:square;stroke-linejoin:miter;stroke-miterlimit:4;stroke-dasharray:none;stroke-opacity:1"
         d="m 888,131 0,2 a 4,4 0 0 1 4,4 l 2,0 a 6,6 0 0 0 -6,-6 z"
         transform="translate(0,287.36218)"
         id="path4529-6-1" />
      <path
         inkscape:connector-curvature="0"
         style="opacity:1;fill:#5f5448;fill-opacity:1;stroke:none;stroke-width:2;stroke-linecap:square;stroke-linejoin:miter;stroke-miterlimit:4;stroke-dasharray:none;stroke-opacity:1"
         d="m 888,127 0,2 a 8,8 0 0 1 8,8 l 2,0 a 10,10 0 0 0 -10,-10 z"
         transform="translate(0,287.36218)"
         id="path4538-8-5" />
    </g>
  </g>
</svg>
